<svg width="124" height="109" viewBox="0 0 124 109" fill="none" xmlns="http://www.w3.org/2000/svg">
<path d="M61.93 108.49C43.9119 108.49 25.8938 108.49 7.87565 108.49C6.99548 108.49 6.10393 108.49 5.21997 108.4C0.709122 107.98 -1.10432 104.952 0.819143 100.857C2.48842 97.3227 4.30946 93.8786 6.07738 90.3817C14.4238 73.9164 22.7702 57.4536 31.1166 40.9933C31.3746 40.4905 31.6439 39.9877 31.9436 39.5076C34.0454 36.1505 37.4598 35.6779 40.1497 38.5738C42.0466 40.6001 43.6514 42.876 45.3434 45.0725C53.9427 56.2703 62.542 67.4732 71.1414 78.6811C74.8972 83.5579 79.6281 83.8225 84.0404 79.4372C86.2294 77.2596 88.3691 75.0253 90.5847 72.8667C94.5796 68.9728 99.1132 69.2071 102.376 73.7475C108.924 82.8585 115.309 92.0905 121.724 101.292C122.226 102.014 122.61 102.81 122.862 103.651C123.485 105.765 122.605 107.466 120.453 108.029C119.105 108.351 117.72 108.499 116.333 108.471C98.209 108.502 80.0745 108.508 61.93 108.49Z" fill="#D4D2E3"/>
<path d="M102.338 18.2688C102.333 21.7832 101.282 25.2171 99.3161 28.1352C97.3507 31.0532 94.56 33.324 91.2978 34.6597C88.0357 35.9954 84.449 36.3358 80.9924 35.6377C77.5359 34.9396 74.3653 33.2345 71.8824 30.7386C69.3995 28.2427 67.7163 25.0683 67.0461 21.618C66.3758 18.1676 66.7488 14.5966 68.1177 11.3578C69.4866 8.1189 71.7898 5.358 74.7352 3.42508C77.6807 1.49217 81.1358 0.474292 84.6625 0.500493C89.3587 0.559962 93.8433 2.45594 97.1497 5.7797C100.456 9.10346 102.319 13.5888 102.338 18.2688Z" fill="#D4D2E3"/>
</svg>
