<svg width="523" height="522" viewBox="0 0 523 522" fill="none" xmlns="http://www.w3.org/2000/svg">
<rect x="0.911865" y="0.389709" width="521.352" height="521.352" rx="20" fill="white"/>
<path d="M261.96 315.056C243.942 315.056 225.924 315.056 207.906 315.056C207.026 315.056 206.134 315.056 205.25 314.965C200.739 314.546 198.926 311.518 200.849 307.423C202.519 303.889 204.34 300.445 206.108 296.948C214.454 280.482 222.8 264.02 231.147 247.559C231.405 247.056 231.674 246.554 231.974 246.073C234.076 242.716 237.49 242.244 240.18 245.14C242.077 247.166 243.682 249.442 245.374 251.638C253.973 262.836 262.572 274.039 271.172 285.247C274.928 290.124 279.658 290.388 284.071 286.003C286.26 283.826 288.399 281.591 290.615 279.433C294.61 275.539 299.143 275.773 302.406 280.313C308.954 289.424 315.339 298.656 321.755 307.858C322.256 308.58 322.64 309.376 322.893 310.217C323.515 312.33 322.635 314.032 320.484 314.595C319.135 314.917 317.75 315.065 316.364 315.037C298.239 315.068 280.105 315.074 261.96 315.056Z" fill="#D4D2E3"/>
<path d="M302.368 224.835C302.364 228.349 301.312 231.783 299.346 234.701C297.381 237.619 294.59 239.89 291.328 241.226C288.066 242.561 284.479 242.902 281.023 242.204C277.566 241.506 274.396 239.8 271.913 237.305C269.43 234.809 267.747 231.634 267.076 228.184C266.406 224.734 266.779 221.163 268.148 217.924C269.517 214.685 271.82 211.924 274.766 209.991C277.711 208.058 281.166 207.04 284.693 207.066C289.389 207.126 293.874 209.022 297.18 212.346C300.486 215.669 302.35 220.155 302.368 224.835Z" fill="#D4D2E3"/>
</svg>
