<svg width="35" height="36" viewBox="0 0 35 36" fill="none" xmlns="http://www.w3.org/2000/svg">
<path fill-rule="evenodd" clip-rule="evenodd" d="M29.5229 10.479C32.1887 10.479 34.3498 8.31788 34.3498 5.65207C34.3498 2.98626 32.1887 0.825195 29.5229 0.825195C26.8571 0.825195 24.696 2.98626 24.696 5.65207C24.696 8.31788 26.8571 10.479 29.5229 10.479Z" fill="#8D8BA7"/>
<path fill-rule="evenodd" clip-rule="evenodd" d="M29.5226 22.6019C32.1884 22.6019 34.3494 20.4409 34.3494 17.7752C34.3494 15.1095 32.1884 12.9485 29.5226 12.9485C26.8567 12.9485 24.6957 15.1095 24.6957 17.7752C24.6957 20.4409 26.8567 22.6019 29.5226 22.6019Z" fill="#8D8BA7"/>
<path fill-rule="evenodd" clip-rule="evenodd" d="M29.5226 35.1745C32.1884 35.1745 34.3494 33.0134 34.3494 30.3476C34.3494 27.6818 32.1884 25.5208 29.5226 25.5208C26.8567 25.5208 24.6957 27.6818 24.6957 30.3476C24.6957 33.0134 26.8567 35.1745 29.5226 35.1745Z" fill="#8D8BA7"/>
<path fill-rule="evenodd" clip-rule="evenodd" d="M16.9505 22.6019C19.6162 22.6019 21.7772 20.4409 21.7772 17.7752C21.7772 15.1095 19.6162 12.9485 16.9505 12.9485C14.2848 12.9485 12.1238 15.1095 12.1238 17.7752C12.1238 20.4409 14.2848 22.6019 16.9505 22.6019Z" fill="#8D8BA7"/>
<path fill-rule="evenodd" clip-rule="evenodd" d="M16.9505 35.1745C19.6162 35.1745 21.7772 33.0134 21.7772 30.3476C21.7772 27.6818 19.6162 25.5208 16.9505 25.5208C14.2848 25.5208 12.1238 27.6818 12.1238 30.3476C12.1238 33.0134 14.2848 35.1745 16.9505 35.1745Z" fill="#8D8BA7"/>
<path fill-rule="evenodd" clip-rule="evenodd" d="M4.82688 35.1745C7.49269 35.1745 9.65376 33.0134 9.65376 30.3476C9.65376 27.6818 7.49269 25.5208 4.82688 25.5208C2.16107 25.5208 0 27.6818 0 30.3476C0 33.0134 2.16107 35.1745 4.82688 35.1745Z" fill="#8D8BA7"/>
</svg>
